<?xml version="1.0" encoding="utf-8"?>
<?xml-stylesheet type="text/xsl" href="rss1.xsl"?>
<rss version="2.0" xmlns:atom="http://www.w3.org/2005/Atom" xmlns:content="http://purl.org/rss/1.0/modules/content/" xmlns:dc="http://purl.org/dc/elements/1.1/" xmlns:media="http://search.yahoo.com/mrss/">
<channel>
 <title>Getty</title>
 <link>http://www.gettyimg.com/</link>
 <atom:link href="http://www.gettyimg.com/" rel="self" type="application/rss+xml" />

 
                <item>
                <title><![CDATA[【Live Audios (lossy)】M4A - Glastonbury 2024 Live &amp; DJ Sets - 28/06/24 (Day 1) - BBC Radio 1, 1 Dance, 2, &amp; 6 Music (Sounds)]]></title>
                <link><![CDATA[https://sharemania.us/threads/glastonbury-2024-live-dj-sets-28-06-24-day-1-bbc-radio-1-1-dance-2-6-music-sounds.248201/]]></link>
                <description><![CDATA[<article>
<blockquote class="messageText SelectQuoteContainer ugc baseHtml">
I wanted to do just Dua Lipa, but then I realized there's more than that on Glastonbury. So, I downloaded all the live sets and uploaded them all here. This includes Live sets and DJ sets as well.<br>
<br>
<b>General Info:<br>
<span style="text-decoration: underline">Stations broadcasted:</span></b> BBC Radio 1, 2, 6 Music (Live Sets), Radio 1 Dance (DJ Sets)<br>
<b><span style="text-decoration: underline">Grabbed from:</span> </b>BBC Sounds<br>
<br>
<b><span style="text-decoration: underline">Live Sets!<br>
<br>
Full Playlist:</span></b><br>
<div class="bbCodeBlock bbCodeVfcHH HiddenContent">
<div class="attribution type">Hidden Content:</div>
<blockquote>You must either reply or click 'Like' to see the hidden information contained here.</blockquote>
</div><b><span style="text-decoration: underline"><br>
Dua Lipa</span></b><br>
<div class="ToggleTriggerAnchor bbCodeSpoilerContainer">
<button type="button" class="button bbCodeSpoilerButton ToggleTrigger Tooltip JsOnly" data-target="> .SpoilerTarget"><span>Spoiler: <span class="SpoilerTitle">MediaInfo</span></span></button>
<div class="SpoilerTarget bbCodeSpoilerText">General<br>
Format : MPEG-4<br>
Format profile : Base Media<br>
Codec ID : isom (isom/iso2/avc1/mp41)<br>
File size : 66.9 MiB<br>
Duration : 1 h 36 min<br>
Overall bit rate mode : Variable<br>
Overall bit rate : 96.8 kb/s<br>
<br>
Audio<br>
ID : 1<br>
Format : AAC LC SBR<br>
Format/Info : Advanced Audio Codec Low Complexity with Spectral Band Replication<br>
Commercial name : HE-AAC<br>
Format settings : NBC<br>
Codec ID : mp4a-40-5<br>
Duration : 1 h 36 min<br>
Duration_LastFrame : -30 ms<br>
Bit rate mode : Variable<br>
Bit rate : 96.0 kb/s<br>
Maximum bit rate : 99.9 kb/s<br>
Channel(s) : 2 channels<br>
Channel layout : L R<br>
Sampling rate : 48.0 kHz<br>
Frame rate : 23.438 FPS (2048 SPF)<br>
Compression mode : Lossy<br>
Stream size : 66.4 MiB (99%)<br>
Language : English<br>
Default : Yes<br>
Alternate group : 1<br>
Errors : Missing ID_END</div>
</div><b><span style="text-decoration: underline">Synopsis</span></b>: A dazzling display of pop perfection; Dua Lipa turns up the heat in her first Glasto headline set.<br>
<div class="bbCodeBlock bbCodeVfcHH HiddenContent">
<div class="attribution type">Hidden Content:</div>
<blockquote>You must either reply or click 'Like' to see the hidden information contained here.</blockquote>
</div><b><span style="text-decoration: underline">SEVENTEEN</span> (Yeah, it's styled like that) [Sounds Exclusive]</b><br>
<div class="ToggleTriggerAnchor bbCodeSpoilerContainer">
<button type="button" class="button bbCodeSpoilerButton ToggleTrigger Tooltip JsOnly" data-target="> .SpoilerTarget"><span>Spoiler: <span class="SpoilerTitle">MediaInfo</span></span></button>
<div class="SpoilerTarget bbCodeSpoilerText">General<br>
Format : MPEG-4<br>
Format profile : Base Media<br>
Codec ID : isom (isom/iso2/avc1/mp41)<br>
File size : 21.0 MiB<br>
Duration : 30 min 17 s<br>
Overall bit rate mode : Variable<br>
Overall bit rate : 96.8 kb/s<br>
<br>
Audio<br>
ID : 1<br>
Format : AAC LC SBR<br>
Format/Info : Advanced Audio Codec Low Complexity with Spectral Band Replication<br>
Commercial name : HE-AAC<br>
Format settings : NBC<br>
Codec ID : mp4a-40-5<br>
Duration : 30 min 17 s<br>
Duration_LastFrame : -2 ms<br>
Bit rate mode : Variable<br>
Bit rate : 96.0 kb/s<br>
Maximum bit rate : 101 kb/s<br>
Channel(s) : 2 channels<br>
Channel layout : L R<br>
Sampling rate : 48.0 kHz<br>
Frame rate : 23.438 FPS (2048 SPF)<br>
Compression mode : Lossy<br>
Stream size : 20.8 MiB (99%)<br>
Language : English<br>
Default : Yes<br>
Alternate group : 1</div>
</div><b><span style="text-decoration: underline">Synopsis: </span></b>SEVENTEEN bring the glitz of K-pop to Glastonbury!<br>
<div class="bbCodeBlock bbCodeVfcHH HiddenContent">
<div class="attribution type">Hidden Content:</div>
<blockquote>You must either reply or click 'Like' to see the hidden information contained here.</blockquote>
</div><b><span style="text-decoration: underline">Sugababes</span></b><br>
<div class="ToggleTriggerAnchor bbCodeSpoilerContainer">
<button type="button" class="button bbCodeSpoilerButton ToggleTrigger Tooltip JsOnly" data-target="> .SpoilerTarget"><span>Spoiler: <span class="SpoilerTitle">MediaInfo</span></span></button>
<div class="SpoilerTarget bbCodeSpoilerText">General<br>
Format : MPEG-4<br>
Format profile : Base Media<br>
Codec ID : isom (isom/iso2/avc1/mp41)<br>
File size : 20.6 MiB<br>
Duration : 29 min 44 s<br>
Overall bit rate mode : Variable<br>
Overall bit rate : 96.8 kb/s<br>
<br>
Audio<br>
ID : 1<br>
Format : AAC LC SBR<br>
Format/Info : Advanced Audio Codec Low Complexity with Spectral Band Replication<br>
Commercial name : HE-AAC<br>
Format settings : NBC<br>
Codec ID : mp4a-40-5<br>
Duration : 29 min 44 s<br>
Duration_LastFrame : -13 ms<br>
Bit rate mode : Variable<br>
Bit rate : 96.0 kb/s<br>
Maximum bit rate : 101 kb/s<br>
Channel(s) : 2 channels<br>
Channel layout : L R<br>
Sampling rate : 48.0 kHz<br>
Frame rate : 23.438 FPS (2048 SPF)<br>
Compression mode : Lossy<br>
Stream size : 20.4 MiB (99%)<br>
Language : English<br>
Default : Yes<br>
Alternate group : 1</div>
</div><b><span style="text-decoration: underline">Synopsis:</span></b> Sugababes shut down the Avalon Stage in 2023; now the OG line up come back even stronger on West Holts.<br>
<div class="bbCodeBlock bbCodeVfcHH HiddenContent">
<div class="attribution type">Hidden Content:</div>
<blockquote>You must either reply or click 'Like' to see the hidden information contained here.</blockquote>
</div><span style="text-decoration: underline"><b>PJ Harvey</b></span><br>
<div class="ToggleTriggerAnchor bbCodeSpoilerContainer">
<button type="button" class="button bbCodeSpoilerButton ToggleTrigger Tooltip JsOnly" data-target="> .SpoilerTarget"><span>Spoiler: <span class="SpoilerTitle">MediaInfo</span></span></button>
<div class="SpoilerTarget bbCodeSpoilerText">General<br>
Format : MPEG-4<br>
Format profile : Base Media<br>
Codec ID : isom (isom/iso2/avc1/mp41)<br>
File size : 20.8 MiB<br>
Duration : 30 min 0 s<br>
Overall bit rate mode : Variable<br>
Overall bit rate : 96.8 kb/s<br>
<br>
Audio<br>
ID : 1<br>
Format : AAC LC SBR<br>
Format/Info : Advanced Audio Codec Low Complexity with Spectral Band Replication<br>
Commercial name : HE-AAC<br>
Format settings : NBC<br>
Codec ID : mp4a-40-5<br>
Duration : 30 min 0 s<br>
Duration_LastFrame : -27 ms<br>
Bit rate mode : Variable<br>
Bit rate : 96.0 kb/s<br>
Maximum bit rate : 101 kb/s<br>
Channel(s) : 2 channels<br>
Channel layout : L R<br>
Sampling rate : 48.0 kHz<br>
Frame rate : 23.438 FPS (2048 SPF)<br>
Compression mode : Lossy<br>
Stream size : 20.6 MiB (99%)<br>
Language : English<br>
Default : Yes<br>
Alternate group : 1</div>
</div><span style="text-decoration: underline"><b>Synopsis:</b></span> Step into PJ Harvey's world of dark beauty and captivating haunting melodies.<br>
<div class="bbCodeBlock bbCodeVfcHH HiddenContent">
<div class="attribution type">Hidden Content:</div>
<blockquote>You must either reply or click 'Like' to see the hidden information contained here.</blockquote>
</div><span style="text-decoration: underline"><b>Olivia Dean</b></span><br>
<div class="ToggleTriggerAnchor bbCodeSpoilerContainer">
<button type="button" class="button bbCodeSpoilerButton ToggleTrigger Tooltip JsOnly" data-target="> .SpoilerTarget"><span>Spoiler: <span class="SpoilerTitle">MediaInfo</span></span></button>
<div class="SpoilerTarget bbCodeSpoilerText">General<br>
Format : MPEG-4<br>
Format profile : Base Media<br>
Codec ID : isom (isom/iso2/avc1/mp41)<br>
File size : 20.5 MiB<br>
Duration : 29 min 40 s<br>
Overall bit rate mode : Variable<br>
Overall bit rate : 96.8 kb/s<br>
<br>
Audio<br>
ID : 1<br>
Format : AAC LC SBR<br>
Format/Info : Advanced Audio Codec Low Complexity with Spectral Band Replication<br>
Commercial name : HE-AAC<br>
Format settings : NBC<br>
Codec ID : mp4a-40-5<br>
Duration : 29 min 40 s<br>
Duration_LastFrame : -28 ms<br>
Bit rate mode : Variable<br>
Bit rate : 96.0 kb/s<br>
Maximum bit rate : 100.0 kb/s<br>
Channel(s) : 2 channels<br>
Channel layout : L R<br>
Sampling rate : 48.0 kHz<br>
Frame rate : 23.438 FPS (2048 SPF)<br>
Compression mode : Lossy<br>
Stream size : 20.4 MiB (99%)<br>
Language : English<br>
Default : Yes<br>
Alternate group : 1</div>
</div><span style="text-decoration: underline"><b>Synopsis:</b></span> The Mercury Prize nominated star Olivia Dean sets her sights on Pyramid Stage glory.<br>
<div class="bbCodeBlock bbCodeVfcHH HiddenContent">
<div class="attribution type">Hidden Content:</div>
<blockquote>You must either reply or click 'Like' to see the hidden information contained here.</blockquote>
</div><span style="text-decoration: underline"><b>LCD Soundsystem</b></span><br>
<div class="ToggleTriggerAnchor bbCodeSpoilerContainer">
<button type="button" class="button bbCodeSpoilerButton ToggleTrigger Tooltip JsOnly" data-target="> .SpoilerTarget"><span>Spoiler: <span class="SpoilerTitle">MediaInfo</span></span></button>
<div class="SpoilerTarget bbCodeSpoilerText">General<br>
Format : MPEG-4<br>
Format profile : Base Media<br>
Codec ID : isom (isom/iso2/avc1/mp41)<br>
File size : 29.3 MiB<br>
Duration : 42 min 22 s<br>
Overall bit rate mode : Variable<br>
Overall bit rate : 96.8 kb/s<br>
<br>
Audio<br>
ID : 1<br>
Format : AAC LC SBR<br>
Format/Info : Advanced Audio Codec Low Complexity with Spectral Band Replication<br>
Commercial name : HE-AAC<br>
Format settings : NBC<br>
Codec ID : mp4a-40-5<br>
Duration : 42 min 22 s<br>
Duration_LastFrame : -29 ms<br>
Bit rate mode : Variable<br>
Bit rate : 96.0 kb/s<br>
Maximum bit rate : 100 kb/s<br>
Channel(s) : 2 channels<br>
Channel layout : L R<br>
Sampling rate : 48.0 kHz<br>
Frame rate : 23.438 FPS (2048 SPF)<br>
Compression mode : Lossy<br>
Stream size : 29.1 MiB (99%)<br>
Language : English<br>
Default : Yes<br>
Alternate group : 1</div>
</div><span style="text-decoration: underline"><b>Synopsis:</b></span> Pulsating beats and genre-defining anthems from electro-rockers LCD Soundsystem.<br>
<div class="bbCodeBlock bbCodeVfcHH HiddenContent">
<div class="attribution type">Hidden Content:</div>
<blockquote>You must either reply or click 'Like' to see the hidden information contained here.</blockquote>
</div><span style="text-decoration: underline"><b><br>
Fontaines D.C.</b></span><br>
<div class="ToggleTriggerAnchor bbCodeSpoilerContainer">
<button type="button" class="button bbCodeSpoilerButton ToggleTrigger Tooltip JsOnly" data-target="> .SpoilerTarget"><span>Spoiler: <span class="SpoilerTitle">MediaInfo</span></span></button>
<div class="SpoilerTarget bbCodeSpoilerText">General<br>
Format : MPEG-4<br>
Format profile : Base Media<br>
Codec ID : isom (isom/iso2/avc1/mp41)<br>
File size : 39.9 MiB<br>
Duration : 57 min 37 s<br>
Overall bit rate mode : Variable<br>
Overall bit rate : 96.8 kb/s<br>
<br>
Audio<br>
ID : 1<br>
Format : AAC LC SBR<br>
Format/Info : Advanced Audio Codec Low Complexity with Spectral Band Replication<br>
Commercial name : HE-AAC<br>
Format settings : NBC<br>
Codec ID : mp4a-40-5<br>
Duration : 57 min 37 s<br>
Duration_LastFrame : -2 ms<br>
Bit rate mode : Variable<br>
Bit rate : 96.0 kb/s<br>
Maximum bit rate : 99.8 kb/s<br>
Channel(s) : 2 channels<br>
Channel layout : L R<br>
Sampling rate : 48.0 kHz<br>
Frame rate : 23.438 FPS (2048 SPF)<br>
Compression mode : Lossy<br>
Stream size : 39.6 MiB (99%)<br>
Language : English<br>
Default : Yes<br>
Alternate group : 1</div>
</div><b><span style="text-decoration: underline">Synopsis:</span></b> Passionate live post-punk and visceral lyrics from the Dublin’s Fontaines D.C.<br>
<div class="bbCodeBlock bbCodeVfcHH HiddenContent">
<div class="attribution type">Hidden Content:</div>
<blockquote>You must either reply or click 'Like' to see the hidden information contained here.</blockquote>
</div><span style="text-decoration: underline"><b><br>
DJ Sets!</b></span><br>
I'm just gonna put the folder here:<br>
<div class="bbCodeBlock bbCodeVfcHH HiddenContent">
<div class="attribution type">Hidden Content:</div>
<blockquote>You must either reply or click 'Like' to see the hidden information contained here.</blockquote>
</div>
<div class="messageTextEndMarker">&nbsp;</div>
</blockquote>
</article>]]></description>
                <author><![CDATA[charlescanlom]]></author>
                </item>

                </channel></rss>